<svg width="251" height="46" viewBox="0 0 251 46" fill="none" xmlns="http://www.w3.org/2000/svg">
<path d="M102.08 11.1205H101.957C100.302 11.1205 98.7406 11.4428 97.2691 12.0838C95.8014 12.7247 94.5172 13.598 93.4239 14.7037C92.3268 15.8093 91.4657 17.0949 90.8292 18.5679C90.1964 20.0372 89.8782 21.6113 89.8782 23.283V31.6936C89.8782 32.2971 90.0878 32.7918 90.5109 33.1929C90.9303 33.5902 91.4432 33.7888 92.046 33.7888C92.6151 33.7888 93.0944 33.5902 93.4838 33.1929C93.8732 32.7918 94.0679 32.2933 94.0679 31.6936V23.283C94.0679 22.1773 94.2775 21.1428 94.7006 20.1758C95.1237 19.2088 95.6891 18.3693 96.4042 17.6534C97.1194 16.9375 97.9543 16.3753 98.9128 15.9593C99.8713 15.5432 100.886 15.3371 101.957 15.3371H102.08C102.698 15.3371 103.215 15.1347 103.638 14.7299C104.061 14.3251 104.271 13.8191 104.271 13.2194C104.271 12.6197 104.08 12.1175 103.698 11.7202C103.316 11.3192 102.777 11.1205 102.077 11.1205H102.08Z" fill="#0C3F89"/>
<path d="M109.651 11.1205C109.067 11.1205 108.565 11.3267 108.142 11.7427C107.719 12.1587 107.509 12.6572 107.509 13.2419V31.6936C107.509 31.986 107.566 32.2596 107.682 32.5107C107.794 32.7618 107.947 32.983 108.146 33.1666C108.341 33.354 108.565 33.504 108.816 33.6164C109.067 33.7288 109.34 33.7888 109.632 33.7888C109.924 33.7888 110.198 33.7326 110.449 33.6164C110.699 33.504 110.924 33.354 111.119 33.1666C111.313 32.9792 111.463 32.7618 111.568 32.5107C111.673 32.2596 111.725 31.986 111.725 31.6936V13.2419C111.725 12.6535 111.531 12.1587 111.141 11.7427C110.752 11.3267 110.258 11.1205 109.655 11.1205H109.651Z" fill="#0C3F89"/>
<path d="M157.348 14.2276C156.299 13.1819 155.075 12.3499 153.671 11.7427C152.267 11.1317 150.762 10.8282 149.155 10.8282C147.549 10.8282 146.063 11.1317 144.651 11.7427C143.24 12.3499 142.004 13.1819 140.952 14.2276C139.896 15.2771 139.065 16.5065 138.455 17.9195C137.844 19.3325 137.541 20.843 137.541 22.4547C137.541 24.0663 137.844 25.5693 138.455 26.9748C139.065 28.3803 139.896 29.6135 140.952 30.6667C142.008 31.7236 143.24 32.5557 144.651 33.1629C146.063 33.7738 147.564 34.0774 149.155 34.0774C150.747 34.0774 152.267 33.7738 153.671 33.1629C155.075 32.5557 156.299 31.7199 157.348 30.6667C158.396 29.6097 159.223 28.3803 159.83 26.9748C160.44 25.5693 160.744 24.0626 160.744 22.4547C160.744 20.8467 160.44 19.3363 159.83 17.9195C159.22 16.5065 158.392 15.2771 157.348 14.2276ZM155.959 25.3182C155.577 26.2177 155.053 27.0086 154.39 27.6832C153.723 28.3579 152.945 28.8938 152.053 29.2911C151.162 29.6884 150.196 29.8871 149.155 29.8871C148.115 29.8871 147.167 29.6884 146.258 29.2911C145.348 28.8938 144.561 28.3579 143.895 27.6832C143.228 27.0086 142.701 26.2177 142.311 25.3182C141.922 24.4186 141.727 23.4629 141.727 22.4547C141.727 21.4464 141.922 20.4682 142.311 19.5649C142.701 18.6616 143.232 17.8783 143.906 17.2111C144.58 16.544 145.366 16.0192 146.269 15.6257C147.167 15.2359 148.13 15.041 149.155 15.041C150.181 15.041 151.159 15.2359 152.053 15.6257C152.945 16.0155 153.727 16.544 154.39 17.2111C155.056 17.8783 155.58 18.6616 155.959 19.5649C156.34 20.4644 156.531 21.4277 156.531 22.4547C156.531 23.4816 156.34 24.4149 155.959 25.3182Z" fill="#0C3F89"/>
<path d="M219.725 14.1939C218.669 13.152 217.441 12.3311 216.037 11.7314C214.633 11.128 213.135 10.8282 211.544 10.8282C209.953 10.8282 208.429 11.1317 207.014 11.7427C205.602 12.3499 204.367 13.1819 203.314 14.2276C202.259 15.2771 201.427 16.5065 200.817 17.9195C200.207 19.3325 199.904 20.843 199.904 22.4547C199.904 24.0663 200.207 25.573 200.817 26.9861C201.427 28.3991 202.259 29.6284 203.314 30.6779C204.37 31.7236 205.602 32.5557 207.014 33.1629C208.425 33.7738 209.934 34.0774 211.544 34.0774C212.469 34.0774 213.311 33.9987 214.075 33.845C214.839 33.6914 215.535 33.4815 216.168 33.2228C216.801 32.9642 217.37 32.6531 217.872 32.2971C218.373 31.941 218.823 31.5662 219.212 31.1764C219.714 30.7529 219.98 30.2806 220.002 29.7634C220.028 29.2461 219.909 28.7814 219.65 28.3728C219.519 28.1779 219.373 28.0055 219.212 27.8481C219.051 27.6944 218.864 27.5745 218.651 27.4958C218.325 27.3834 217.988 27.3534 217.64 27.4096C217.291 27.4658 216.921 27.6307 216.531 27.9081C215.962 28.5415 215.243 29.0288 214.375 29.3698C213.506 29.7109 212.563 29.8833 211.537 29.8833C210.675 29.8833 209.859 29.7446 209.088 29.4673C208.317 29.1899 207.628 28.8076 207.017 28.3204C206.407 27.8331 205.89 27.2522 205.46 26.5775C205.029 25.9029 204.734 25.1608 204.573 24.3474H221.129C221.747 24.3474 222.245 24.16 222.627 23.7852C223.009 23.4104 223.2 22.9307 223.2 22.346C223.181 20.753 222.863 19.2538 222.237 17.8483C221.612 16.4428 220.773 15.2209 219.718 14.1827L219.725 14.1939ZM204.456 20.8467C204.602 20.0034 204.883 19.2276 205.295 18.5192C205.711 17.8145 206.231 17.2036 206.868 16.6901C207.5 16.1804 208.219 15.7756 209.021 15.4833C209.826 15.1909 210.687 15.0447 211.615 15.0447C212.544 15.0447 213.409 15.1872 214.221 15.472C215.034 15.7569 215.76 16.1542 216.4 16.6676C217.041 17.1811 217.576 17.7883 218.007 18.4967C218.437 19.2051 218.725 19.9884 218.871 20.8467H204.456Z" fill="#0C3F89"/>
<path d="M172.287 29.8908C171.167 29.8908 170.269 29.5685 169.595 28.9276C168.921 28.2866 168.576 27.3646 168.558 26.1615V12.9496C168.558 12.3461 168.344 11.8439 167.914 11.4391C167.483 11.0343 166.978 10.8319 166.394 10.8319C165.809 10.8319 165.345 11.0343 164.956 11.4391C164.566 11.8439 164.372 12.3499 164.372 12.9496V26.1615C164.372 27.3496 164.57 28.4291 164.967 29.4036C165.364 30.3781 165.914 31.2101 166.611 31.8998C167.307 32.5932 168.135 33.1291 169.093 33.5227C170.052 33.9125 171.081 34.1074 172.186 34.1074H172.283C172.882 34.1074 173.38 33.9125 173.769 33.5227C174.159 33.1329 174.354 32.6456 174.354 32.0609C174.354 31.4762 174.159 30.9665 173.769 30.5392C173.38 30.1082 172.886 29.8946 172.283 29.8946L172.287 29.8908Z" fill="#0C3F89"/>
<path d="M55.915 14.1939C54.8667 13.152 53.6461 12.3311 52.2495 11.7314C50.853 11.128 49.359 10.8282 47.7678 10.8282C46.1765 10.8282 44.6751 11.1317 43.2636 11.7427C41.852 12.3499 40.6165 13.1819 39.5644 14.2276C38.5085 15.2771 37.6773 16.5065 37.067 17.9195C36.4567 19.3325 36.1534 20.843 36.1534 22.4547C36.1534 24.0663 36.4567 25.5693 37.067 26.9748C37.6773 28.3803 38.5085 29.6135 39.5644 30.6667C40.6202 31.7236 41.852 32.5557 43.2636 33.1629C44.6751 33.7738 46.1765 34.0774 47.7678 34.0774C49.1793 34.0774 50.5085 33.8038 51.7478 33.2603C52.9909 32.7131 54.1141 31.9972 55.1213 31.1014L55.1475 31.6149C55.1475 32.2184 55.3384 32.7281 55.7203 33.1516C56.1023 33.5752 56.5927 33.7851 57.1918 33.7851C57.7909 33.7851 58.3225 33.5752 58.7381 33.1516C59.15 32.7281 59.3597 32.2184 59.3597 31.6149V22.3272C59.3447 20.7343 59.0264 19.2388 58.4086 17.8408C57.7909 16.4428 56.9597 15.2246 55.9113 14.1864L55.915 14.1939ZM54.5746 25.3219C54.1927 26.2215 53.6686 27.0123 53.0058 27.687C52.3394 28.3616 51.5606 28.8976 50.6695 29.2949C49.7784 29.6922 48.8124 29.8908 47.7715 29.8908C46.7307 29.8908 45.7834 29.6922 44.8736 29.2949C43.9637 28.8976 43.1775 28.3616 42.511 27.687C41.8445 27.0123 41.3166 26.2215 40.9272 25.3219C40.5378 24.4224 40.3431 23.4666 40.3431 22.4584C40.3431 21.4502 40.5378 20.4719 40.9272 19.5686C41.3166 18.6654 41.8483 17.882 42.5222 17.2149C43.1962 16.5477 43.9824 16.023 44.8848 15.6294C45.7834 15.2396 46.7456 15.0447 47.7715 15.0447C48.7974 15.0447 49.7746 15.2396 50.6695 15.6294C51.5606 16.0192 52.3431 16.5477 53.0058 17.2149C53.6723 17.882 54.1927 18.6654 54.5746 19.5686C54.9565 20.4682 55.1475 21.4314 55.1475 22.4584C55.1475 23.4854 54.9565 24.4186 54.5746 25.3219Z" fill="#0C3F89"/>
<path d="M82.8242 14.2276C81.7759 13.1819 80.5515 12.3499 79.1475 11.7427C77.7434 11.1317 76.2383 10.8282 74.632 10.8282C73.0258 10.8282 71.5394 11.1317 70.1278 11.7427C68.7163 12.3499 67.4807 13.1819 66.4286 14.2276C65.3728 15.2771 64.5416 16.5065 63.9313 17.9195C63.321 19.3325 63.0177 20.843 63.0177 22.4547C63.0177 24.0663 63.321 25.5693 63.9313 26.9748C64.5416 28.3803 65.3728 29.6135 66.4286 30.6667C67.4845 31.7236 68.7163 32.5557 70.1278 33.1629C71.5394 33.7738 73.0408 34.0774 74.632 34.0774C76.2233 34.0774 77.7434 33.7738 79.1475 33.1629C80.5515 32.5557 81.7759 31.7199 82.8242 30.6667C83.8726 29.6097 84.7 28.3803 85.3066 26.9748C85.9169 25.5693 86.2202 24.0626 86.2202 22.4547C86.2202 20.8467 85.9169 19.3363 85.3066 17.9195C84.6963 16.5065 83.8688 15.2771 82.8242 14.2276ZM81.4352 25.3182C81.0532 26.2177 80.5291 27.0086 79.8664 27.6832C79.1999 28.3579 78.4211 28.8938 77.53 29.2911C76.6389 29.6884 75.6729 29.8871 74.632 29.8871C73.5912 29.8871 72.6439 29.6884 71.7341 29.2911C70.8242 28.8938 70.038 28.3579 69.3715 27.6832C68.7051 27.0086 68.1771 26.2177 67.7877 25.3182C67.3984 24.4186 67.2037 23.4629 67.2037 22.4547C67.2037 21.4464 67.3984 20.4682 67.7877 19.5649C68.1771 18.6616 68.7088 17.8783 69.3827 17.2111C70.0567 16.544 70.843 16.0192 71.7453 15.6257C72.6439 15.2359 73.6061 15.041 74.6283 15.041C75.6504 15.041 76.6314 15.2359 77.5263 15.6257C78.4174 16.0155 79.1999 16.544 79.8626 17.2111C80.5291 17.8783 81.0495 18.6616 81.4314 19.5649C81.8133 20.4644 82.0043 21.4277 82.0043 22.4547C82.0043 23.4816 81.8133 24.4149 81.4314 25.3182H81.4352Z" fill="#0C3F89"/>
<path d="M83.0601 37.6606C82.7194 37.3832 82.3525 37.222 81.9594 37.1733C81.5662 37.1246 81.1881 37.1658 80.8324 37.2932C80.6527 37.3607 80.4879 37.4357 80.3344 37.5256C80.1809 37.6156 80.0349 37.7243 79.8926 37.8555C79.1213 38.4739 78.3088 38.9162 77.4477 39.1823C76.5865 39.4521 75.6505 39.5871 74.6283 39.5871C74.6283 39.5871 74.6208 39.5871 74.6171 39.5871C74.6133 39.5871 74.6096 39.5871 74.6059 39.5871C73.5837 39.5871 72.6439 39.4521 71.7865 39.1823C70.9291 38.9162 70.1129 38.4701 69.3416 37.8555C69.1993 37.728 69.0496 37.6156 68.8998 37.5256C68.7463 37.4357 68.5815 37.3607 68.4018 37.2932C68.0424 37.1658 67.668 37.1246 67.2748 37.1733C66.8817 37.222 66.5148 37.3832 66.174 37.6606C65.9232 37.8742 65.7435 38.1216 65.6349 38.4064C65.5263 38.6913 65.4814 38.9836 65.5001 39.2835C65.5188 39.5833 65.5974 39.8794 65.7397 40.1718C65.882 40.4641 66.0804 40.7152 66.3313 40.9251C67.4246 41.8696 68.6714 42.578 70.0754 43.0578C71.4795 43.5375 72.9884 43.7774 74.5984 43.7774C74.5984 43.7774 74.6059 43.7774 74.6096 43.7774C74.6134 43.7774 74.6171 43.7774 74.6208 43.7774C76.2308 43.7774 77.7397 43.5375 79.1438 43.0578C80.5478 42.578 81.7984 41.8659 82.8879 40.9251C83.1388 40.7152 83.3372 40.4641 83.4795 40.1718C83.6218 39.8794 83.7041 39.5833 83.7229 39.2835C83.7416 38.9836 83.6966 38.6913 83.5881 38.4064C83.4795 38.1216 83.2998 37.8742 83.0489 37.6606H83.0601Z" fill="#0C3F89"/>
<path d="M195.748 13.6804C194.482 12.7359 193.037 12.0275 191.408 11.5478C189.783 11.068 188.035 10.8282 186.17 10.8282C186.166 10.8282 186.163 10.8282 186.159 10.8282C186.155 10.8282 186.151 10.8282 186.148 10.8282C184.283 10.8282 182.535 11.068 180.91 11.5478C179.281 12.0275 177.836 12.7397 176.57 13.6804C176.278 13.8903 176.053 14.1414 175.885 14.4338C175.72 14.7261 175.627 15.0222 175.604 15.3221C175.582 15.6219 175.634 15.9143 175.758 16.1991C175.881 16.484 176.091 16.7314 176.379 16.945C176.772 17.2224 177.199 17.3835 177.652 17.4322C178.109 17.481 178.543 17.4397 178.959 17.3123C179.165 17.2448 179.36 17.1699 179.536 17.0799C179.712 16.99 179.884 16.8813 180.048 16.7501C180.94 16.1317 181.883 15.6894 182.879 15.4233C183.253 15.3221 183.65 15.2471 184.051 15.1834V32.0085C184.051 32.3008 184.107 32.5744 184.223 32.8255C184.336 33.0767 184.489 33.2978 184.687 33.4852C184.882 33.6726 185.107 33.8225 185.358 33.935C185.609 34.0474 185.882 34.1074 186.174 34.1074C186.466 34.1074 186.739 34.0512 186.99 33.935C187.241 33.8225 187.466 33.6726 187.66 33.4852C187.855 33.2978 188.005 33.0804 188.11 32.8255C188.214 32.5744 188.267 32.3008 188.267 32.0085V15.1834C188.668 15.2471 189.064 15.3221 189.439 15.4233C190.435 15.6894 191.378 16.1354 192.269 16.7501C192.434 16.8813 192.606 16.99 192.782 17.0799C192.958 17.1699 193.149 17.2448 193.359 17.3123C193.775 17.4397 194.209 17.481 194.666 17.4322C195.122 17.3835 195.546 17.2224 195.939 16.945C196.231 16.7314 196.437 16.484 196.56 16.1991C196.684 15.9143 196.736 15.6219 196.714 15.3221C196.695 15.0222 196.601 14.7261 196.433 14.4338C196.268 14.1414 196.04 13.8903 195.748 13.6804Z" fill="#0C3F89"/>
<path d="M246.432 29.8908C246.211 29.8009 245.972 29.7784 245.897 29.7671C245.788 29.7559 245.695 29.7484 245.627 29.7484C245.522 29.7446 245.365 29.7334 245.182 29.7034C244.976 29.6697 244.605 29.5947 243.935 29.2911C243.587 29.1337 242.886 28.8114 242.153 28.2267C241.939 28.058 241.737 27.8743 241.542 27.6832C240.861 27.0085 240.325 26.2177 239.936 25.3182C239.547 24.4186 239.352 23.4629 239.352 22.4546C239.352 21.4464 239.547 20.4682 239.936 19.5649C240.325 18.6616 240.861 17.8783 241.542 17.2111C241.711 17.0462 242.572 16.2141 243.935 15.6257C244.399 15.4233 244.714 15.3446 244.901 15.2996C245.245 15.2209 245.537 15.1946 245.747 15.1871C245.942 15.1722 246.245 15.1272 246.567 14.9698C246.679 14.9135 246.885 14.8011 247.099 14.5987C247.522 14.2014 247.731 13.7142 247.731 13.1332C247.731 12.5523 247.522 12.02 247.099 11.5815C246.675 11.143 246.151 10.9256 245.526 10.9256H245.32C245.256 10.9256 245.167 10.9331 245.058 10.9443C243.897 11.0455 243.066 11.3979 242.276 11.7389C240.76 12.3948 239.771 13.1519 239.472 13.3843C239.139 13.6467 238.82 13.9278 238.517 14.2239C238.019 14.7111 237.573 15.2396 237.173 15.8056C236.772 15.2396 236.327 14.7111 235.829 14.2239C235.525 13.9278 235.207 13.6467 234.874 13.3843C234.574 13.1519 233.59 12.3948 232.07 11.7389C231.283 11.3979 230.448 11.0455 229.288 10.9443C229.179 10.9331 229.089 10.9293 229.026 10.9256H228.82C228.194 10.9256 227.67 11.143 227.247 11.5815C226.824 12.02 226.614 12.5373 226.614 13.1332C226.614 13.7292 226.824 14.2014 227.247 14.5987C227.461 14.8011 227.666 14.9135 227.779 14.9698C228.105 15.1272 228.404 15.1759 228.599 15.1871C228.808 15.1984 229.1 15.2246 229.445 15.2996C229.632 15.3408 229.947 15.4233 230.411 15.6257C231.77 16.2141 232.631 17.0424 232.803 17.2111C233.485 17.8783 234.02 18.6616 234.41 19.5649C234.799 20.4644 234.994 21.4277 234.994 22.4546C234.994 23.4816 234.799 24.4149 234.41 25.3182C234.02 26.2215 233.485 27.0085 232.803 27.6832C232.609 27.8743 232.407 28.0543 232.193 28.2267C231.459 28.8114 230.763 29.1337 230.411 29.2911C229.741 29.5947 229.37 29.6697 229.164 29.7034C228.981 29.7334 228.827 29.7446 228.719 29.7484C228.651 29.7484 228.561 29.7521 228.449 29.7671C228.374 29.7746 228.134 29.8009 227.914 29.8908C227.58 30.0257 227.378 30.2281 227.243 30.3668C226.82 30.8053 226.611 31.3226 226.611 31.9185C226.611 32.5145 226.82 32.9867 227.243 33.384C227.666 33.7813 228.191 33.9799 228.816 33.9799H229.022L229.119 33.9687C229.905 33.86 230.931 33.6389 232.062 33.1666C232.358 33.0429 233.563 32.5294 234.78 31.5812C235.144 31.3001 235.492 30.9965 235.821 30.6704C236.319 30.1794 236.765 29.6509 237.165 29.085C237.566 29.6509 238.012 30.1794 238.509 30.6704C238.839 30.9965 239.187 31.3001 239.55 31.5812C240.771 32.5294 241.973 33.0429 242.269 33.1666C243.399 33.6389 244.425 33.86 245.212 33.9687C245.245 33.9687 245.279 33.9762 245.313 33.9799H245.519C246.144 33.9799 246.668 33.7813 247.091 33.384C247.514 32.9867 247.724 32.4995 247.724 31.9185C247.724 31.3376 247.514 30.8053 247.091 30.3668C246.956 30.2281 246.754 30.0257 246.421 29.8908H246.432Z" fill="#0C3F89"/>
<path d="M133.531 23.4179C133.048 22.9681 132.341 22.5409 131.408 22.1436C130.472 21.7425 129.716 21.4652 129.132 21.3152C128.548 21.1653 127.705 20.9592 126.608 20.6893C125.609 20.4569 124.867 20.2733 124.384 20.1384C123.901 20.0072 123.336 19.7973 122.684 19.5124C122.033 19.2313 121.576 18.894 121.307 18.5117C121.041 18.1294 120.906 17.6684 120.906 17.1362C120.906 16.3003 121.307 15.5845 122.104 14.9848C122.905 14.3851 124.088 14.0852 125.654 14.0852C127.919 14.0852 129.753 14.7861 131.154 16.1879C131.888 16.9225 132.655 17.2861 133.453 17.2861C133.853 17.2861 134.201 17.1549 134.501 16.885C134.8 16.6189 134.954 16.2704 134.954 15.8356C134.954 14.6025 134.07 13.4593 132.303 12.4061C130.536 11.3566 128.319 10.8319 125.654 10.8319C122.988 10.8319 120.943 11.4054 119.326 12.556C117.708 13.7067 116.9 15.2359 116.9 17.1362C116.9 18.0357 117.083 18.8565 117.45 19.5874C117.817 20.322 118.233 20.8992 118.701 21.3152C119.169 21.735 119.85 22.1323 120.752 22.5146C121.651 22.8969 122.385 23.1668 122.95 23.3167C123.516 23.4666 124.332 23.6728 125.399 23.9426C126.399 24.175 127.174 24.3774 127.724 24.5423C128.274 24.711 128.873 24.9434 129.525 25.2432C130.173 25.5431 130.648 25.9104 130.951 26.3451C131.251 26.7799 131.401 27.2784 131.401 27.8481C131.401 28.6839 130.959 29.3998 130.075 29.9995C129.192 30.5992 127.934 30.899 126.301 30.899C123.602 30.899 121.569 30.0482 120.202 28.3466C119.603 27.6457 118.937 27.2972 118.203 27.2972C117.802 27.2972 117.443 27.4321 117.128 27.6982C116.81 27.9643 116.653 28.3316 116.653 28.7964C116.653 30.1344 117.551 31.3488 119.352 32.4507C121.153 33.5489 123.467 34.1036 126.301 34.1036C129.136 34.1036 131.318 33.5639 132.955 32.477C134.587 31.3938 135.403 29.8646 135.403 27.8968C135.403 26.8961 135.209 26.0116 134.827 25.2432C134.441 24.4786 134.01 23.8677 133.527 23.4142L133.531 23.4179Z" fill="#0C3F89"/>
<path d="M5.39904 23.358C5.30544 26.8961 6.11043 29.3736 6.11043 29.3736C4.87112 13.3056 15.7741 2.8298 15.7741 2.8298C28.6989 17.2673 4.89358 23.8752 8.66768 38.9911C-0.730125 30.2581 0.546629 13.0658 10.9479 5.70457C6.81058 11.6153 5.5226 18.523 5.3953 23.3542L5.39904 23.358Z" fill="#0C3F89"/>
<path d="M26.1116 23.253C26.2052 19.7148 25.4002 17.2374 25.4002 17.2374C26.6395 33.3053 15.7366 43.7812 15.7366 43.7812C2.81181 29.3399 26.6171 22.732 22.8392 7.61609C32.237 16.3491 30.9603 33.5415 20.5591 40.9027C24.6963 34.992 25.9843 28.0843 26.1116 23.253Z" fill="#0C3F89"/>
</svg>
